<?xml version="1.0" encoding="UTF-8"?>
<!DOCTYPE svg PUBLIC "-//W3C//DTD SVG 1.1//EN" "http://www.w3.org/Graphics/SVG/1.1/DTD/svg11.dtd">
<svg xmlns="http://www.w3.org/2000/svg" version="1.1" width="70px" height="70px" style="shape-rendering:geometricPrecision; text-rendering:geometricPrecision; image-rendering:optimizeQuality; fill-rule:evenodd; clip-rule:evenodd" xmlns:xlink="http://www.w3.org/1999/xlink">
<g><path style="opacity:1" fill="#1f1f1f" d="M 54.5,10.5 C 58.7372,13.2281 62.5706,16.5615 66,20.5C 66.6667,21.1667 66.6667,21.8333 66,22.5C 53.1667,35.3333 40.3333,48.1667 27.5,61C 26.8333,61.6667 26.1667,61.6667 25.5,61C 18,53.5 10.5,46 3,38.5C 5.44573,33.8669 8.94573,29.8669 13.5,26.5C 17.6516,30.1511 21.6516,33.9844 25.5,38C 26.1667,38.6667 26.8333,38.6667 27.5,38C 36.7023,28.965 45.7023,19.7984 54.5,10.5 Z"/></g>
<g><path style="opacity:1" fill="#676767" d="M 55.5,15.5 C 58.3948,17.2023 60.2281,19.5356 61,22.5C 49.6667,33.8333 38.3333,45.1667 27,56.5C 20.6519,50.3189 14.4852,43.9855 8.5,37.5C 10.0188,34.4402 12.3522,32.9402 15.5,33C 19.349,36.6818 23.0156,40.5151 26.5,44.5C 36.521,35.1457 46.1877,25.479 55.5,15.5 Z"/></g>
</svg>
